<?xml version="1.0" encoding="utf-8"?>
<!-- Generator: Adobe Illustrator 16.0.0, SVG Export Plug-In . SVG Version: 6.00 Build 0)  -->
<!DOCTYPE svg PUBLIC "-//W3C//DTD SVG 1.1//EN" "http://www.w3.org/Graphics/SVG/1.1/DTD/svg11.dtd">
<svg version="1.1" id="Layer_1" xmlns="http://www.w3.org/2000/svg" xmlns:xlink="http://www.w3.org/1999/xlink" x="0px" y="0px"
	 width="101.744px" height="101.745px" viewBox="0 0 101.744 101.745" enable-background="new 0 0 101.744 101.745"
	 xml:space="preserve">
<g>
	<path fill-rule="evenodd" clip-rule="evenodd" d="M80.383,51.033c0.148,15.794-13.125,29.208-29.055,29.402
		C35.327,80.63,20.958,68.13,21.307,49.862c0.285-14.8,12.23-28.243,29.264-28.539C67.069,21.039,80.227,34.288,80.383,51.033z
		 M50.756,73.319c12.332,0.027,22.516-9.963,22.564-22.136c0.051-12.549-10.027-22.789-22.438-22.796
		c-12.136-0.006-22.445,10.13-22.499,22.122C28.327,63.112,38.309,73.292,50.756,73.319z"/>
	<path fill-rule="evenodd" clip-rule="evenodd" d="M87.874,83.907c-0.105,1.748-0.611,2.85-1.879,3.501
		c-1.361,0.699-2.768,0.666-3.854-0.351c-2.49-2.331-4.916-4.743-7.246-7.232c-1.232-1.314-0.996-3.469,0.26-4.717
		c1.248-1.238,3.389-1.426,4.721-0.176c2.451,2.299,4.816,4.696,7.131,7.133C87.522,82.61,87.686,83.49,87.874,83.907z"/>
	<path fill-rule="evenodd" clip-rule="evenodd" d="M17.523,13.651c0.889,0.506,1.915,0.866,2.642,1.544
		c2.156,2.008,4.215,4.123,6.272,6.229c1.608,1.645,1.667,3.66,0.22,5.151c-1.477,1.523-3.582,1.48-5.261-0.165
		c-2.142-2.098-4.253-4.229-6.362-6.357c-1.161-1.168-1.428-2.558-0.783-4.057C14.82,14.671,15.877,13.97,17.523,13.651z"/>
	<path fill-rule="evenodd" clip-rule="evenodd" d="M87.854,17.995c-0.229,0.41-0.543,1.355-1.16,2.013
		c-2.088,2.218-4.268,4.352-6.445,6.482c-1.557,1.522-3.572,1.582-5.041,0.222c-1.416-1.316-1.525-3.542-0.088-5.053
		c2.168-2.282,4.418-4.487,6.672-6.688c1.17-1.144,2.59-1.372,4.07-0.684C87.174,14.898,87.819,16,87.854,17.995z"/>
	<path fill-rule="evenodd" clip-rule="evenodd" d="M23.659,74.122c1.828,0.032,2.94,0.604,3.61,1.913
		c0.698,1.367,0.591,2.729-0.438,3.814c-2.305,2.431-4.674,4.807-7.096,7.122c-1.316,1.257-3.419,1.143-4.709-0.071
		c-1.316-1.24-1.615-3.315-0.365-4.674c2.336-2.539,4.813-4.95,7.305-7.335C22.47,74.407,23.307,74.273,23.659,74.122z"/>
	<path fill-rule="evenodd" clip-rule="evenodd" d="M93.444,54.387c-1.58,0-3.156,0.03-4.732-0.01
		c-2.074-0.052-3.471-1.454-3.492-3.44c-0.021-2.038,1.418-3.563,3.525-3.596c3.154-0.047,6.309-0.052,9.461,0.003
		c2.066,0.036,3.59,1.664,3.537,3.625c-0.053,1.925-1.529,3.361-3.57,3.411C96.598,54.417,95.02,54.387,93.444,54.387z"/>
	<path fill-rule="evenodd" clip-rule="evenodd" d="M54.385,93.42c-0.002,1.627,0.039,3.256-0.014,4.884
		c-0.059,1.935-1.512,3.375-3.381,3.438c-1.895,0.063-3.588-1.402-3.637-3.361c-0.078-3.254-0.07-6.513-0.006-9.769
		c0.039-2.008,1.594-3.407,3.568-3.394c1.992,0.014,3.404,1.402,3.461,3.469C54.418,90.265,54.385,91.842,54.385,93.42z"/>
	<path fill-rule="evenodd" clip-rule="evenodd" d="M54.389,8.341c0,1.576,0.029,3.155-0.008,4.731
		c-0.047,2.036-1.494,3.461-3.469,3.478c-1.963,0.016-3.531-1.41-3.566-3.405C47.29,9.94,47.295,6.733,47.342,3.53
		C47.37,1.563,48.956,0.028,50.84,0c1.955-0.028,3.48,1.525,3.549,3.609c0.002,0.102,0.002,0.203,0.002,0.306
		C54.391,5.39,54.391,6.866,54.389,8.341z"/>
	<path fill-rule="evenodd" clip-rule="evenodd" d="M8.183,54.384c-1.577,0-3.155,0.036-4.731-0.009
		C1.483,54.319-0.029,52.732,0,50.834c0.031-1.828,1.512-3.445,3.381-3.483c3.256-0.066,6.516-0.062,9.771-0.005
		c1.991,0.035,3.417,1.61,3.397,3.571c-0.02,1.976-1.445,3.395-3.481,3.471c-0.103,0.003-0.203,0.002-0.306,0.002
		c-1.525,0.001-3.051,0.001-4.579,0.001C8.183,54.389,8.183,54.387,8.183,54.384z"/>
</g>
</svg>
