<?xml version="1.0" encoding="utf-8"?>
<!-- Generator: Adobe Illustrator 16.0.0, SVG Export Plug-In . SVG Version: 6.00 Build 0)  -->
<!DOCTYPE svg PUBLIC "-//W3C//DTD SVG 1.1//EN" "http://www.w3.org/Graphics/SVG/1.1/DTD/svg11.dtd">
<svg version="1.1" id="Layer_1" xmlns="http://www.w3.org/2000/svg" xmlns:xlink="http://www.w3.org/1999/xlink" x="0px" y="0px"
	 width="47.003px" height="36.454px" viewBox="0 0 47.003 36.454" enable-background="new 0 0 47.003 36.454" xml:space="preserve">
<g>
	<path fill-rule="evenodd" clip-rule="evenodd" d="M23.504,21.422c-6.89,0-13.778,0.002-20.668,0
		c-1.941-0.001-2.803-0.859-2.808-2.787c-0.002-0.433-0.016-0.866,0.004-1.298c0.06-1.303,0.983-2.223,2.292-2.294
		c0.199-0.011,0.399-0.003,0.6-0.003c13.712,0,27.426,0,41.138,0c2.085,0,2.896,0.809,2.896,2.885c0,0.299,0.002,0.599,0,0.898
		c-0.012,1.669-0.919,2.596-2.585,2.598C37.417,21.426,30.46,21.422,23.504,21.422z"/>
	<path fill-rule="evenodd" clip-rule="evenodd" d="M23.499,36.454c-6.656,0-13.313-0.063-19.968,0.031
		c-2.751,0.038-3.709-0.85-3.504-3.594c0.015-0.199-0.008-0.4,0.008-0.6c0.084-1.095,0.823-1.932,1.906-2.125
		c0.356-0.063,0.727-0.073,1.091-0.073c13.645-0.003,27.289-0.001,40.935-0.007c0.961-0.001,1.865,0.088,2.513,0.92
		c0.697,0.896,0.7,3.664,0.001,4.57c-0.565,0.732-1.339,0.888-2.216,0.885c-5.357-0.016-10.716-0.008-16.073-0.008
		C26.626,36.454,25.062,36.454,23.499,36.454z"/>
	<path fill-rule="evenodd" clip-rule="evenodd" d="M23.57,0.001c6.821,0,13.643-0.001,20.464,0c2.19,0.001,2.925,0.742,2.925,2.934
		c0,0.433,0.023,0.867-0.008,1.297c-0.079,1.042-0.83,1.869-1.863,2.049c-0.357,0.062-0.728,0.071-1.092,0.071
		C30.319,6.356,16.642,6.357,2.966,6.355c-1.652,0-2.567-0.458-2.79-1.683c-0.18-0.987-0.167-2.06,0.013-3.049
		c0.202-1.12,1.083-1.615,2.417-1.618c3.826-0.01,7.653-0.004,11.479-0.004C17.247,0.001,20.409,0.001,23.57,0.001z"/>
</g>
</svg>
