<?xml version="1.0" encoding="utf-8"?>
<!-- Generator: Adobe Illustrator 16.0.0, SVG Export Plug-In . SVG Version: 6.00 Build 0)  -->
<!DOCTYPE svg PUBLIC "-//W3C//DTD SVG 1.1//EN" "http://www.w3.org/Graphics/SVG/1.1/DTD/svg11.dtd">
<svg version="1.1" xmlns="http://www.w3.org/2000/svg" xmlns:xlink="http://www.w3.org/1999/xlink" x="0px" y="0px"
	 width="101.744px" height="101.745px" viewBox="0 0 101.744 101.745" enable-background="new 0 0 101.744 101.745"
	 xml:space="preserve">
<g id="Layer_1" display="none">
	<g display="inline">
		<path fill-rule="evenodd" clip-rule="evenodd" d="M80.383,51.033c0.148,15.794-13.125,29.208-29.055,29.402
			C35.327,80.63,20.958,68.13,21.307,49.862c0.285-14.8,12.23-28.243,29.264-28.539C67.069,21.039,80.227,34.288,80.383,51.033z
			 M50.756,73.319c12.332,0.027,22.516-9.963,22.564-22.136c0.051-12.549-10.027-22.789-22.438-22.796
			c-12.136-0.006-22.445,10.13-22.499,22.122C28.327,63.112,38.309,73.292,50.756,73.319z"/>
		<path fill-rule="evenodd" clip-rule="evenodd" d="M87.874,83.907c-0.105,1.748-0.611,2.85-1.879,3.501
			c-1.361,0.699-2.768,0.666-3.854-0.351c-2.49-2.331-4.916-4.743-7.246-7.232c-1.232-1.314-0.996-3.469,0.26-4.717
			c1.248-1.238,3.389-1.426,4.721-0.176c2.451,2.299,4.816,4.696,7.131,7.133C87.522,82.61,87.686,83.49,87.874,83.907z"/>
		<path fill-rule="evenodd" clip-rule="evenodd" d="M17.523,13.651c0.889,0.506,1.915,0.866,2.642,1.544
			c2.156,2.008,4.215,4.123,6.272,6.229c1.608,1.645,1.667,3.66,0.22,5.151c-1.477,1.523-3.582,1.48-5.261-0.165
			c-2.142-2.098-4.253-4.229-6.362-6.357c-1.161-1.168-1.428-2.558-0.783-4.057C14.82,14.671,15.877,13.97,17.523,13.651z"/>
		<path fill-rule="evenodd" clip-rule="evenodd" d="M87.854,17.995c-0.229,0.41-0.543,1.355-1.16,2.013
			c-2.088,2.218-4.268,4.352-6.445,6.482c-1.557,1.522-3.572,1.582-5.041,0.222c-1.416-1.316-1.525-3.542-0.088-5.053
			c2.168-2.282,4.418-4.487,6.672-6.688c1.17-1.144,2.59-1.372,4.07-0.684C87.174,14.898,87.819,16,87.854,17.995z"/>
		<path fill-rule="evenodd" clip-rule="evenodd" d="M23.659,74.122c1.828,0.032,2.94,0.604,3.61,1.913
			c0.698,1.367,0.591,2.729-0.438,3.814c-2.305,2.431-4.674,4.807-7.096,7.122c-1.316,1.257-3.419,1.143-4.709-0.071
			c-1.316-1.24-1.615-3.315-0.365-4.674c2.336-2.539,4.813-4.95,7.305-7.335C22.47,74.407,23.307,74.273,23.659,74.122z"/>
		<path fill-rule="evenodd" clip-rule="evenodd" d="M93.444,54.387c-1.58,0-3.156,0.03-4.732-0.01
			c-2.074-0.052-3.471-1.454-3.492-3.44c-0.021-2.038,1.418-3.563,3.525-3.596c3.154-0.047,6.309-0.052,9.461,0.003
			c2.066,0.036,3.59,1.664,3.537,3.625c-0.053,1.925-1.529,3.361-3.57,3.411C96.598,54.417,95.02,54.387,93.444,54.387z"/>
		<path fill-rule="evenodd" clip-rule="evenodd" d="M54.385,93.42c-0.002,1.627,0.039,3.256-0.014,4.884
			c-0.059,1.935-1.512,3.375-3.381,3.438c-1.895,0.063-3.588-1.402-3.637-3.361c-0.078-3.254-0.07-6.513-0.006-9.769
			c0.039-2.008,1.594-3.407,3.568-3.394c1.992,0.014,3.404,1.402,3.461,3.469C54.418,90.265,54.385,91.842,54.385,93.42z"/>
		<path fill-rule="evenodd" clip-rule="evenodd" d="M54.389,8.341c0,1.576,0.029,3.155-0.008,4.731
			c-0.047,2.036-1.494,3.461-3.469,3.478c-1.963,0.016-3.531-1.41-3.566-3.405C47.29,9.94,47.295,6.733,47.342,3.53
			C47.37,1.563,48.956,0.028,50.84,0c1.955-0.028,3.48,1.525,3.549,3.609c0.002,0.102,0.002,0.203,0.002,0.306
			C54.391,5.39,54.391,6.866,54.389,8.341z"/>
		<path fill-rule="evenodd" clip-rule="evenodd" d="M8.183,54.384c-1.577,0-3.155,0.036-4.731-0.009
			C1.483,54.319-0.029,52.732,0,50.834c0.031-1.828,1.512-3.445,3.381-3.483c3.256-0.066,6.516-0.062,9.771-0.005
			c1.991,0.035,3.417,1.61,3.397,3.571c-0.02,1.976-1.445,3.395-3.481,3.471c-0.103,0.003-0.203,0.002-0.306,0.002
			c-1.525,0.001-3.051,0.001-4.579,0.001C8.183,54.389,8.183,54.387,8.183,54.384z"/>
	</g>
	<g display="inline">
		<path fill-rule="evenodd" clip-rule="evenodd" fill="#FFFFFF" d="M113.991,115.939c-2.052,0-3.851,0.007-5.65-0.002
			c-3.214-0.014-4.254-1.43-3.337-4.551c0.443-1.51,0.926-3.008,1.36-4.521c0.118-0.409,0.126-0.851,0.248-1.745
			c-2.881,0-5.577,0.145-8.254-0.025c-9.649-0.613-16.504-5.475-20.547-14.162c-4.98-10.7-0.037-24.489,10.424-29.928
			c3.856-2.006,7.914-2.854,12.171-2.938c1.223-0.024,1.902-0.373,2.525-1.45c4.76-8.238,11.988-12.89,21.377-13.857
			c8.153-0.84,15.286,1.775,21.338,7.363c5.121,4.729,7.838,10.588,8.685,17.438c0.068,0.549,0.846,1.309,1.42,1.447
			c3.854,0.925,7.074,2.84,9.725,5.767c5.897,6.512,6.273,16.363,0.725,23.421c-4.097,5.211-9.653,7.119-16.059,7.118
			c-4.402-0.002-8.804,0.049-13.204-0.027c-1.504-0.026-2.186,0.538-2.259,2.23c1.163,0,2.27,0.042,3.372-0.011
			c1.312-0.063,2.383,0.363,2.943,1.556c0.611,1.301,0.039,2.405-0.894,3.353c-4.511,4.578-9.021,9.156-13.538,13.729
			c-4.756,4.814-9.494,9.647-14.308,14.403c-0.665,0.657-1.702,1.237-2.602,1.294c-1.767,0.111-2.875-1.732-2.305-3.631
			c1.955-6.514,3.956-13.016,5.928-19.524C113.519,117.887,113.699,117.065,113.991,115.939z M137.369,99.783
			c0.214,0.094,0.361,0.216,0.51,0.215c5.075-0.019,10.175,0.254,15.219-0.15c7.28-0.584,12.549-7.062,11.626-14.648
			c-0.735-6.045-5.679-10.758-11.849-11.277c-3.213-0.271-3.621-0.705-3.673-3.911c-0.171-10.497-6.9-18.979-17.235-21.726
			c-9.224-2.451-20.224,2.118-24.452,10.68c-1.691,3.424-3.718,4.551-7.414,4.443c-8.688-0.25-15.41,4.994-18.053,12.566
			c-3.146,9.012,2.021,19.652,11.02,22.825c4.295,1.515,8.667,1.131,13.039,1.217c2.39,0.048,2.488-0.085,2.65-2.673
			c-2.255,0-4.503,0.039-6.749-0.012c-1.912-0.043-2.94-1.508-2.466-3.357c0.472-1.84,1.933-1.782,3.367-1.783
			c11.169-0.001,22.339-0.004,33.508,0c3.385,0.002,6.77-0.019,10.153,0.045c1.801,0.035,2.636,0.943,2.611,2.599
			c-0.024,1.614-0.946,2.485-2.732,2.505c-2.086,0.027-4.183,0.127-6.258-0.027C138.369,97.176,137.428,97.786,137.369,99.783z
			 M115.985,128.261c5.119-5.019,10.387-10.185,15.653-15.349c-0.122-0.042-0.376-0.158-0.642-0.217
			c-2.618-0.585-3.239-1.711-2.34-4.246c0.488-1.375,0.968-2.752,1.433-4.135c0.745-2.214,1.475-4.433,2.233-6.718
			c-0.425-0.125-0.63-0.237-0.836-0.238c-5.301-0.011-10.602-0.038-15.902,0.038c-0.454,0.008-1.139,0.626-1.305,1.104
			c-0.737,2.12-1.342,4.287-1.958,6.446c-0.518,1.817-0.986,3.648-1.56,5.781c2.489,0,4.726-0.073,6.957,0.021
			c2.086,0.087,3.15,1.631,2.572,3.604c-0.615,2.103-1.304,4.185-1.952,6.277C117.51,123.297,116.692,125.965,115.985,128.261z"/>
	</g>
</g>
<g id="Layer_2">
	<g>
		<path fill-rule="evenodd" clip-rule="evenodd" d="M41.833,74.591c-2.052,0-3.851,0.007-5.65-0.002
			c-3.214-0.014-4.254-1.43-3.337-4.551c0.443-1.51,0.926-3.008,1.36-4.521c0.118-0.409,0.126-0.851,0.248-1.745
			c-2.881,0-5.577,0.145-8.254-0.025c-9.649-0.613-16.504-5.475-20.547-14.162c-4.98-10.7-0.037-24.489,10.424-29.928
			c3.856-2.006,7.914-2.854,12.171-2.938c1.223-0.024,1.902-0.373,2.525-1.45c4.76-8.238,11.988-12.89,21.377-13.857
			c8.153-0.84,15.286,1.775,21.338,7.363c5.121,4.729,7.838,10.588,8.685,17.438c0.068,0.549,0.846,1.309,1.42,1.447
			c3.854,0.925,7.074,2.84,9.725,5.767c5.897,6.512,6.273,16.363,0.725,23.421c-4.097,5.211-9.653,7.119-16.059,7.118
			c-4.402-0.002-8.804,0.049-13.204-0.027c-1.504-0.026-2.186,0.538-2.259,2.23c1.163,0,2.27,0.042,3.372-0.011
			c1.312-0.063,2.383,0.363,2.943,1.556c0.611,1.301,0.039,2.405-0.894,3.353c-4.511,4.578-9.021,9.156-13.538,13.729
			c-4.756,4.814-9.494,9.647-14.308,14.403c-0.665,0.657-1.702,1.237-2.602,1.294c-1.767,0.111-2.875-1.732-2.305-3.631
			c1.955-6.514,3.956-13.016,5.928-19.524C41.361,76.538,41.542,75.717,41.833,74.591z M65.212,58.435
			c0.214,0.094,0.361,0.216,0.51,0.215c5.075-0.019,10.175,0.254,15.219-0.15c7.28-0.584,12.549-7.062,11.626-14.648
			c-0.735-6.045-5.679-10.758-11.849-11.277c-3.213-0.271-3.621-0.705-3.673-3.911c-0.171-10.497-6.9-18.979-17.235-21.726
			c-9.224-2.451-20.224,2.118-24.452,10.68c-1.691,3.424-3.718,4.551-7.414,4.443c-8.688-0.25-15.41,4.994-18.053,12.566
			c-3.146,9.012,2.021,19.652,11.02,22.825c4.295,1.515,8.667,1.131,13.039,1.217c2.39,0.048,2.488-0.085,2.65-2.673
			c-2.255,0-4.503,0.039-6.749-0.012c-1.912-0.043-2.94-1.508-2.466-3.357c0.472-1.84,1.933-1.782,3.367-1.783
			c11.169-0.001,22.339-0.004,33.508,0c3.385,0.002,6.77-0.019,10.153,0.045c1.801,0.035,2.636,0.943,2.611,2.599
			c-0.024,1.614-0.946,2.485-2.732,2.505c-2.086,0.027-4.183,0.127-6.258-0.027C66.212,55.827,65.271,56.438,65.212,58.435z
			 M43.828,86.912c5.119-5.019,10.387-10.185,15.653-15.349c-0.122-0.042-0.376-0.158-0.642-0.217
			c-2.618-0.585-3.239-1.711-2.34-4.246c0.488-1.375,0.968-2.752,1.433-4.135c0.745-2.214,1.475-4.433,2.233-6.718
			c-0.425-0.125-0.63-0.237-0.836-0.238c-5.301-0.011-10.602-0.038-15.902,0.038c-0.454,0.008-1.139,0.626-1.305,1.104
			c-0.737,2.12-1.342,4.287-1.958,6.446c-0.518,1.817-0.986,3.648-1.56,5.781c2.489,0,4.726-0.073,6.957,0.021
			c2.086,0.087,3.15,1.631,2.572,3.604c-0.615,2.103-1.304,4.185-1.952,6.277C45.353,81.948,44.535,84.616,43.828,86.912z"/>
		<path fill-rule="evenodd" clip-rule="evenodd" d="M79.308,66.49c2.126,0.062,3.431,1.639,2.976,3.194
			c-0.82,2.808-1.761,5.582-2.741,8.338c-0.523,1.472-1.832,1.788-3.199,1.577c-1.242-0.19-2.092-1.615-1.679-3.048
			c0.824-2.862,1.736-5.709,2.836-8.474C77.811,67.299,78.9,66.831,79.308,66.49z"/>
		<path fill-rule="evenodd" clip-rule="evenodd" d="M17.169,79.677c-2.139-0.064-3.377-1.578-2.936-3.097
			c0.815-2.802,1.733-5.581,2.741-8.32c0.497-1.35,1.624-2.036,3.111-1.654c1.364,0.351,2.187,1.708,1.755,3.191
			c-0.813,2.802-1.689,5.6-2.79,8.296C18.724,78.897,17.562,79.363,17.169,79.677z"/>
		<path fill-rule="evenodd" clip-rule="evenodd" d="M35.063,80.065c-0.192,0.62-0.473,1.586-0.791,2.541
			c-0.64,1.918-1.25,3.849-1.967,5.738c-0.52,1.367-2.039,2.101-3.262,1.72c-1.294-0.403-2.125-1.823-1.687-3.256
			c0.838-2.738,1.747-5.46,2.75-8.143c0.483-1.293,1.602-1.946,2.99-1.581C34.347,77.415,35.088,78.308,35.063,80.065z"/>
		<path fill-rule="evenodd" clip-rule="evenodd" d="M70.073,82.03c-0.163,0.556-0.371,1.367-0.636,2.16
			c-0.727,2.172-1.433,4.354-2.232,6.5c-0.518,1.39-1.688,1.75-3.029,1.433c-1.302-0.309-2.175-1.669-1.786-2.981
			c0.841-2.838,1.759-5.658,2.788-8.433c0.443-1.194,1.51-1.828,2.847-1.5C69.309,79.524,70.009,80.413,70.073,82.03z"/>
	</g>
</g>
</svg>
