<?xml version="1.0" encoding="utf-8"?>
<!-- Generator: Adobe Illustrator 16.0.0, SVG Export Plug-In . SVG Version: 6.00 Build 0)  -->
<!DOCTYPE svg PUBLIC "-//W3C//DTD SVG 1.1//EN" "http://www.w3.org/Graphics/SVG/1.1/DTD/svg11.dtd">
<svg version="1.1" xmlns="http://www.w3.org/2000/svg" xmlns:xlink="http://www.w3.org/1999/xlink" x="0px" y="0px" width="100px"
	 height="100px" viewBox="0 0 100 100" enable-background="new 0 0 100 100" xml:space="preserve">
<g id="Layer_1">
	<g>
		<path d="M50,27.874c12.2,0,22.126,9.926,22.126,22.126S62.2,72.126,50,72.126S27.874,62.2,27.874,50S37.8,27.874,50,27.874
			 M50,20.874c-16.085,0-29.126,13.041-29.126,29.126S33.915,79.126,50,79.126S79.126,66.085,79.126,50S66.085,20.874,50,20.874
			L50,20.874z"/>
	</g>
	
		<line fill="none" stroke="#000000" stroke-width="7" stroke-linecap="round" stroke-miterlimit="10" x1="50" y1="14.042" x2="50" y2="3.542"/>
	
		<line fill="none" stroke="#000000" stroke-width="7" stroke-linecap="round" stroke-miterlimit="10" x1="75.426" y1="24.573" x2="82.852" y2="17.149"/>
	
		<line fill="none" stroke="#000000" stroke-width="7" stroke-linecap="round" stroke-miterlimit="10" x1="85.958" y1="49.999" x2="96.459" y2="50.001"/>
	
		<line fill="none" stroke="#000000" stroke-width="7" stroke-linecap="round" stroke-miterlimit="10" x1="75.428" y1="75.425" x2="82.852" y2="82.853"/>
	
		<line fill="none" stroke="#000000" stroke-width="7" stroke-linecap="round" stroke-miterlimit="10" x1="50.002" y1="85.958" x2="50" y2="96.46"/>
	
		<line fill="none" stroke="#000000" stroke-width="7" stroke-linecap="round" stroke-miterlimit="10" x1="24.575" y1="75.428" x2="17.147" y2="82.852"/>
	
		<line fill="none" stroke="#000000" stroke-width="7" stroke-linecap="round" stroke-miterlimit="10" x1="14.042" y1="50.002" x2="3.54" y2="49.999"/>
	
		<line fill="none" stroke="#000000" stroke-width="7" stroke-linecap="round" stroke-miterlimit="10" x1="24.572" y1="24.575" x2="17.149" y2="17.147"/>
</g>
<g id="Layer_2" display="none">
	<g id="Layer_3" display="inline">
		<g display="none">
			<path display="inline" fill="#010101" d="M50.912,17.391c9.57,0,17.992,6.117,20.956,15.223l1.78,5.472l5.713-0.688
				c0.584-0.069,1.056-0.104,1.482-0.104c6.67,0,12.096,5.428,12.096,12.098c0,6.67-5.424,12.096-12.094,12.096H23.168l-1.009-0.043
				C13.691,61.087,7.06,54.179,7.06,45.714c0-8.697,7.075-15.772,15.771-15.772c0.841,0,1.731,0.084,2.726,0.258l4.486,0.781
				l2.533-3.784C36.688,21.057,43.542,17.391,50.912,17.391 M50.912,10.391c-10.07,0-18.941,5.129-24.152,12.913
				c-1.277-0.223-2.586-0.361-3.928-0.361c-12.576,0-22.771,10.194-22.771,22.772c0,12.25,9.68,22.212,21.804,22.724v0.049h58.98
				c10.547,0,19.096-8.549,19.096-19.096c0-10.547-8.549-19.098-19.096-19.098c-0.787,0-1.559,0.062-2.32,0.153
				C74.736,18.811,63.813,10.391,50.912,10.391L50.912,10.391z"/>
		</g>
		
			<line fill="none" stroke="#010101" stroke-width="6" stroke-linecap="round" stroke-miterlimit="10" x1="21.499" y1="78.812" x2="21.497" y2="90.313"/>
		
			<line fill="none" stroke="#010101" stroke-width="6" stroke-linecap="round" stroke-miterlimit="10" x1="49.999" y1="78.812" x2="49.997" y2="90.313"/>
		
			<line fill="none" stroke="#010101" stroke-width="6" stroke-linecap="round" stroke-miterlimit="10" x1="78.499" y1="78.812" x2="78.497" y2="90.313"/>
		<g>
			<path fill="#FFFFFF" d="M22.766,66.187l-0.774-0.047C11.373,65.681,3.057,56.774,3.057,45.865
				c0-11.206,8.869-20.323,19.771-20.323c1.068,0,2.182,0.106,3.4,0.323l1.953,0.349l1.084-1.66
				c4.858-7.431,12.948-11.867,21.643-11.867c11.299,0,21.246,7.415,24.753,18.45l0.755,2.374l2.473-0.305
				c0.743-0.092,1.363-0.135,1.952-0.135c8.875,0,16.097,7.428,16.097,16.559c0,9.129-7.222,16.557-16.097,16.557H22.766z"/>
			<path fill="#010101" d="M50.908,15.687c9.986,0,18.785,6.574,21.895,16.358l1.51,4.749l4.943-0.611
				c0.618-0.076,1.122-0.112,1.585-0.112c7.222,0,13.097,6.083,13.097,13.559c0,7.475-5.875,13.557-13.097,13.557H23.143
				l-1.021-0.043c-9.008-0.391-16.063-7.98-16.063-17.279c0-9.552,7.523-17.323,16.771-17.323c0.892,0,1.83,0.09,2.873,0.277
				l3.905,0.697l2.172-3.321C36.079,19.615,43.23,15.687,50.908,15.687 M50.908,9.687c-10.07,0-18.941,5.253-24.152,13.225
				c-1.277-0.228-2.586-0.37-3.928-0.37c-12.576,0-22.771,10.441-22.771,23.323c0,12.546,9.68,22.748,21.804,23.273v0.049h58.979
				c10.548,0,19.097-8.756,19.097-19.557c0-10.802-8.549-19.559-19.097-19.559c-0.786,0-1.558,0.063-2.319,0.157
				C74.732,18.311,63.811,9.687,50.908,9.687L50.908,9.687z"/>
		</g>
	</g>
</g>
</svg>
