<?xml version="1.0" encoding="utf-8"?>
<!-- Generator: Adobe Illustrator 16.0.0, SVG Export Plug-In . SVG Version: 6.00 Build 0)  -->
<!DOCTYPE svg PUBLIC "-//W3C//DTD SVG 1.1//EN" "http://www.w3.org/Graphics/SVG/1.1/DTD/svg11.dtd">
<svg version="1.1" xmlns="http://www.w3.org/2000/svg" xmlns:xlink="http://www.w3.org/1999/xlink" x="0px" y="0px" width="100px"
	 height="100px" viewBox="0 0 100 100" enable-background="new 0 0 100 100" xml:space="preserve">
<g id="Sun">
	<g>
		<path fill="#FFFFFF" d="M50,75.626C35.87,75.626,24.374,64.13,24.374,50c0-14.13,11.496-25.626,25.626-25.626
			c14.13,0,25.626,11.496,25.626,25.626C75.626,64.13,64.13,75.626,50,75.626z"/>
		<path d="M50,27.874c12.2,0,22.126,9.926,22.126,22.126S62.2,72.126,50,72.126S27.874,62.2,27.874,50S37.8,27.874,50,27.874
			 M50,20.874c-16.085,0-29.126,13.041-29.126,29.126S33.915,79.126,50,79.126S79.126,66.085,79.126,50S66.085,20.874,50,20.874
			L50,20.874z"/>
	</g>
	
		<line fill="none" stroke="#000000" stroke-width="7" stroke-linecap="round" stroke-miterlimit="10" x1="50" y1="14.042" x2="50" y2="3.542"/>
	
		<line fill="none" stroke="#000000" stroke-width="7" stroke-linecap="round" stroke-miterlimit="10" x1="75.426" y1="24.573" x2="82.852" y2="17.149"/>
	
		<line fill="none" stroke="#000000" stroke-width="7" stroke-linecap="round" stroke-miterlimit="10" x1="85.958" y1="49.999" x2="96.459" y2="50.001"/>
	
		<line fill="none" stroke="#000000" stroke-width="7" stroke-linecap="round" stroke-miterlimit="10" x1="75.428" y1="75.425" x2="82.852" y2="82.853"/>
	
		<line fill="none" stroke="#000000" stroke-width="7" stroke-linecap="round" stroke-miterlimit="10" x1="50.002" y1="85.958" x2="50" y2="96.46"/>
	
		<line fill="none" stroke="#000000" stroke-width="7" stroke-linecap="round" stroke-miterlimit="10" x1="24.575" y1="75.428" x2="17.147" y2="82.852"/>
	
		<line fill="none" stroke="#000000" stroke-width="7" stroke-linecap="round" stroke-miterlimit="10" x1="14.042" y1="50.002" x2="3.54" y2="49.999"/>
	
		<line fill="none" stroke="#000000" stroke-width="7" stroke-linecap="round" stroke-miterlimit="10" x1="24.572" y1="24.575" x2="17.149" y2="17.147"/>
</g>
<g id="Clouds">
	<g display="none">
		<path display="inline" fill="#FFFFFF" d="M22.769,76.051l-0.775-0.047C11.376,75.545,3.06,66.639,3.06,55.729
			c0-11.206,8.869-20.323,19.771-20.323c1.069,0,2.182,0.106,3.4,0.323l1.953,0.349l1.085-1.66
			c4.857-7.431,12.947-11.867,21.642-11.867c11.299,0,21.246,7.415,24.753,18.45l0.755,2.374l2.473-0.305
			c0.743-0.092,1.363-0.135,1.952-0.135c8.875,0,16.096,7.428,16.096,16.559c0,9.13-7.221,16.558-16.096,16.558H22.769z"/>
		<path display="inline" d="M50.911,25.55c9.986,0,18.785,6.574,21.895,16.358l1.509,4.749l4.944-0.611
			c0.618-0.076,1.122-0.112,1.585-0.112c7.221,0,13.096,6.083,13.096,13.559s-5.875,13.558-13.096,13.558H23.145l-1.021-0.045
			C13.115,72.617,6.06,65.027,6.06,55.729c0-9.552,7.523-17.323,16.771-17.323c0.891,0,1.83,0.09,2.873,0.277l3.906,0.697
			l2.171-3.321C36.082,29.479,43.233,25.55,50.911,25.55 M50.911,19.55c-10.07,0-18.941,5.253-24.152,13.225
			c-1.277-0.228-2.586-0.37-3.928-0.37c-12.576,0-22.771,10.441-22.771,23.323c0,12.547,9.68,22.748,21.804,23.271v0.051h58.98
			c10.547,0,19.096-8.756,19.096-19.558s-8.549-19.559-19.096-19.559c-0.787,0-1.558,0.063-2.32,0.157
			C74.736,28.174,63.813,19.55,50.911,19.55L50.911,19.55z"/>
	</g>
</g>
<g id="Layer_3" display="none">
	<g>
		<path display="inline" d="M50.914,15.704c9.571,0,17.992,6.117,20.956,15.223l1.78,5.472l5.713-0.688
			c0.584-0.07,1.056-0.104,1.483-0.104c6.67,0,12.096,5.427,12.096,12.097S87.517,59.8,80.847,59.8H23.17l-1.009-0.043
			c-8.467-0.357-15.099-7.266-15.099-15.729c0-8.697,7.075-15.772,15.771-15.772c0.841,0,1.732,0.084,2.726,0.258l4.486,0.781
			l2.533-3.784C36.689,19.37,43.544,15.704,50.914,15.704 M50.914,8.704c-10.07,0-18.941,5.129-24.152,12.913
			c-1.277-0.223-2.586-0.361-3.928-0.361c-12.576,0-22.771,10.194-22.771,22.772c0,12.25,9.68,22.211,21.804,22.723V66.8h58.98
			c10.547,0,19.096-8.549,19.096-19.096s-8.549-19.097-19.096-19.097c-0.787,0-1.558,0.062-2.32,0.153
			C74.739,17.124,63.815,8.704,50.914,8.704L50.914,8.704z"/>
	</g>
	
		<line display="inline" fill="none" stroke="#000000" stroke-width="6" stroke-linecap="round" stroke-miterlimit="10" x1="21.501" y1="77.125" x2="21.499" y2="88.627"/>
	
		<line display="inline" fill="none" stroke="#000000" stroke-width="6" stroke-linecap="round" stroke-miterlimit="10" x1="50.001" y1="77.125" x2="49.999" y2="88.627"/>
	
		<line display="inline" fill="none" stroke="#000000" stroke-width="6" stroke-linecap="round" stroke-miterlimit="10" x1="78.501" y1="77.125" x2="78.499" y2="88.627"/>
	<g display="inline">
		<path fill="#FFFFFF" d="M22.768,64.5l-0.775-0.047C11.375,63.994,3.059,55.088,3.059,44.178c0-11.206,8.869-20.323,19.771-20.323
			c1.069,0,2.182,0.106,3.4,0.323l1.953,0.349l1.085-1.66C34.126,15.436,42.216,11,50.91,11c11.299,0,21.246,7.415,24.753,18.45
			l0.755,2.374l2.473-0.305c0.743-0.092,1.363-0.135,1.952-0.135c8.875,0,16.096,7.428,16.096,16.559
			c0,9.129-7.221,16.557-16.096,16.557H22.768z"/>
		<path d="M50.91,14c9.986,0,18.785,6.574,21.895,16.358l1.509,4.749l4.944-0.611c0.618-0.076,1.122-0.112,1.585-0.112
			c7.221,0,13.096,6.083,13.096,13.559c0,7.475-5.875,13.557-13.096,13.557H23.144l-1.021-0.044
			c-9.008-0.39-16.063-7.979-16.063-17.278c0-9.552,7.523-17.323,16.771-17.323c0.891,0,1.83,0.09,2.873,0.277l3.906,0.697
			l2.171-3.321C36.081,17.928,43.232,14,50.91,14 M50.91,8c-10.07,0-18.941,5.253-24.152,13.225c-1.277-0.228-2.586-0.37-3.928-0.37
			c-12.576,0-22.771,10.441-22.771,23.323c0,12.546,9.68,22.748,21.804,23.272v0.05h58.98c10.547,0,19.096-8.756,19.096-19.557
			c0-10.802-8.549-19.559-19.096-19.559c-0.787,0-1.558,0.063-2.32,0.157C74.735,16.624,63.812,8,50.91,8L50.91,8z"/>
	</g>
</g>
<g id="Layer_4" display="none">
	
		<polyline display="inline" fill="#FFFFFF" stroke="#000000" stroke-width="6" stroke-linecap="round" stroke-linejoin="round" stroke-miterlimit="10" points="
		36.827,49.001 29.8,69.013 44.097,69.013 37.555,96.865 68.813,64.575 56.212,64.447 62.754,49.001 	"/>
	
		<line display="inline" fill="none" stroke="#000000" stroke-width="6" stroke-linecap="round" stroke-miterlimit="10" x1="26.081" y1="80.094" x2="23.055" y2="91.19"/>
	
		<line display="inline" fill="none" stroke="#000000" stroke-width="6" stroke-linecap="round" stroke-miterlimit="10" x1="67.267" y1="80.094" x2="64.24" y2="91.19"/>
	
		<line display="inline" fill="none" stroke="#000000" stroke-width="6" stroke-linecap="round" stroke-miterlimit="10" x1="14.683" y1="67.787" x2="11.657" y2="78.884"/>
	
		<line display="inline" fill="none" stroke="#000000" stroke-width="6" stroke-linecap="round" stroke-miterlimit="10" x1="81.303" y1="67.787" x2="78.277" y2="78.884"/>
	<g display="inline">
		<path fill="#FFFFFF" d="M22.768,56.5l-0.776-0.047C11.375,55.994,3.059,47.088,3.059,36.178c0-11.206,8.87-20.323,19.771-20.323
			c1.069,0,2.181,0.106,3.4,0.323l1.953,0.349l1.085-1.66C34.126,7.436,42.216,3,50.91,3c11.299,0,21.246,7.415,24.753,18.45
			l0.755,2.374l2.473-0.305c0.743-0.092,1.363-0.135,1.952-0.135c8.875,0,16.096,7.428,16.096,16.559
			c0,9.129-7.221,16.557-16.096,16.557H22.768z"/>
		<path d="M50.91,6c9.986,0,18.785,6.574,21.895,16.358l1.509,4.749l4.944-0.611c0.618-0.076,1.122-0.112,1.585-0.112
			c7.221,0,13.096,6.083,13.096,13.559c0,7.476-5.875,13.557-13.096,13.557H23.144l-1.022-0.044
			c-9.007-0.39-16.063-7.979-16.063-17.278c0-9.552,7.523-17.323,16.771-17.323c0.89,0,1.83,0.09,2.873,0.277l3.906,0.697
			l2.171-3.321C36.081,9.928,43.232,6,50.91,6 M50.91,0C40.84,0,31.969,5.253,26.758,13.225c-1.277-0.228-2.586-0.37-3.928-0.37
			c-12.576,0-22.771,10.441-22.771,23.323c0,12.546,9.68,22.748,21.804,23.272v0.05h58.98c10.547,0,19.096-8.755,19.096-19.557
			S91.39,20.384,80.843,20.384c-0.787,0-1.558,0.063-2.32,0.157C74.735,8.624,63.812,0,50.91,0L50.91,0z"/>
	</g>
</g>
</svg>
